# xmcd CD database file
#
# Track frame offsets:
#	150
#	29821
#	52766
#	79801
#	100312
#	120219
#	136797
#	172999
#	193453
#	226408
#	254804
#	279796
#	323257
#
# Disc length: 4535 seconds
#
# Revision: 3
# Processed by: cddbd v1.5.2PL0 Copyright (c) Steve Scherf et al.
# Submitted via: CDex 1.70beta2
#
DISCID=a811b50d
DTITLE=Tedeschi Trucks Band - LET ME GET BY
DYEAR=2016
DGENRE=Blues
TTITLE0=Anyhow
TTITLE1=Laugh About It
TTITLE2=Don't Know What It Means
TTITLE3=Right On Time
TTITLE4=Let Me Get By
TTITLE5=Just As Strange
TTITLE6=Crying Over You - Swamp Raga for Holzapfel, Lefebvre, Flute and Harmonium
TTITLE7=Hear Me
TTITLE8=I Want More
TTITLE9=In Every Heart
TTITLE10=Laugh About It (Live Recording - The Beacon Theatre, New York City, NY) [Bonus Track]
TTITLE11=Keep On Growing (Live Recording - The Beacon Theatre, New York City, NY) [Bonus Track]
TTITLE12=Sticks And Stones (Live Recording - The Beacon Theatre, New York City, NY) [Bonus Track]
EXTD=Powerd by gracenote music web API YEAR: 2016
EXTT0=
EXTT1=
EXTT2=
EXTT3=
EXTT4=
EXTT5=
EXTT6=
EXTT7=
EXTT8=
EXTT9=
EXTT10=
EXTT11=
EXTT12=
PLAYORDER=
